<?xml version="1.0" encoding="utf-8"?>
<!-- Generator: Adobe Illustrator 21.1.0, SVG Export Plug-In . SVG Version: 6.00 Build 0)  -->
<svg version="1.1" id="Layer_1" xmlns="http://www.w3.org/2000/svg" xmlns:xlink="http://www.w3.org/1999/xlink" x="0px" y="0px"
	 viewBox="0 0 600 250" style="enable-background:new 0 0 600 250;" xml:space="preserve">
<style type="text/css">
	.st0{fill:url(#SVGID_1_);}
	.st1{fill:#344963;}
</style>
<g>
	<g>
		<g>
			<linearGradient id="SVGID_1_" gradientUnits="userSpaceOnUse" x1="68.4105" y1="78.9629" x2="68.4105" y2="193.6491">
				<stop  offset="0" style="stop-color:#F39222"/>
				<stop  offset="0.4877" style="stop-color:#EB5C2A"/>
				<stop  offset="1" style="stop-color:#BE202E"/>
			</linearGradient>
			<path class="st0" d="M66.3,172.7v-12.9c-5.2-1-9-5.5-9-10.9c0-2.3,0.7-4.3,1.8-6.1l-10.9-8l-10.9,8c1.2,1.8,1.8,3.8,1.8,6.1
				c0,2.3-0.7,4.4-1.8,6.1l24.7,19.5C63.3,173.6,64.8,173,66.3,172.7z M70.5,172.7c1.6,0.3,3,0.9,4.3,1.8L99.5,155
				c-1.2-1.8-1.8-3.9-1.8-6.1c0-2.3,0.7-4.3,1.8-6.1l-10.9-8l-10.9,8c1.2,1.8,1.8,3.8,1.8,6.1c0,5.4-3.9,10-9,10.9V172.7z
				 M77.7,177.5c1.2,1.8,1.8,3.9,1.8,6.1c0,6.2-5,11.1-11.1,11.1s-11.1-5-11.1-11.1c0-2.3,0.7-4.4,1.8-6.1L34.4,158
				c-1.8,1.3-4,2-6.4,2c-6.2,0-11.1-5-11.1-11.1c0-5.4,3.9-10,9-10.9v-11.5c-5.2-1-9-5.5-9-10.9c0-6.2,5-11.1,11.1-11.1
				c2.4,0,4.6,0.7,6.4,2l24.7-19.5c-1.2-1.8-1.8-3.9-1.8-6.1c0-6.2,5-11.1,11.1-11.1s11.1,5,11.1,11.1c0,2.3-0.7,4.4-1.8,6.1
				l24.7,19.5c1.8-1.3,4-2,6.4-2c6.2,0,11.1,5,11.1,11.1c0,5.4-3.9,10-9,10.9v11.5c5.2,1,9,5.5,9,10.9c0,6.2-5,11.1-11.1,11.1
				c-2.4,0-4.6-0.7-6.4-2L77.7,177.5z M34.4,139.7l10.3-7.6l-10.3-7.6c-1.3,0.9-2.7,1.5-4.3,1.8v11.5
				C31.7,138.2,33.2,138.8,34.4,139.7z M37.4,121.5l10.9,8l10.9-8c-1.2-1.8-1.8-3.8-1.8-6.1c0-5.4,3.9-10,9-10.9V91.6
				c-1.6-0.3-3-0.9-4.3-1.8l-24.7,19.5c1.2,1.8,1.8,3.9,1.8,6.1C39.2,117.7,38.5,119.8,37.4,121.5z M102.4,139.7
				c1.3-0.9,2.7-1.5,4.3-1.8v-11.5c-1.6-0.3-3-0.9-4.3-1.8l-10.3,7.6L102.4,139.7z M99.5,109.3L74.8,89.8c-1.3,0.9-2.7,1.5-4.3,1.8
				v12.9c5.2,1,9,5.5,9,10.9c0,2.3-0.7,4.3-1.8,6.1l10.9,8l10.9-8c-1.2-1.8-1.8-3.8-1.8-6.1C97.6,113.1,98.3,111,99.5,109.3z
				 M62,139.7c1.8-1.3,4-2,6.4-2c2.4,0,4.6,0.7,6.4,2l10.3-7.6l-10.3-7.6c-1.8,1.3-4,2-6.4,2c-2.4,0-4.6-0.7-6.4-2l-10.3,7.6
				L62,139.7z M68.4,122.4c3.8,0,7-3.1,7-7c0-3.8-3.1-7-7-7s-7,3.1-7,7C61.5,119.3,64.6,122.4,68.4,122.4z M68.4,155.8
				c3.8,0,7-3.1,7-7c0-3.8-3.1-7-7-7s-7,3.1-7,7C61.5,152.7,64.6,155.8,68.4,155.8z M108.8,122.4c3.8,0,7-3.1,7-7c0-3.8-3.1-7-7-7
				c-3.8,0-7,3.1-7,7C101.8,119.3,104.9,122.4,108.8,122.4z M108.8,155.8c3.8,0,7-3.1,7-7c0-3.8-3.1-7-7-7c-3.8,0-7,3.1-7,7
				C101.8,152.7,104.9,155.8,108.8,155.8z M28,122.4c3.8,0,7-3.1,7-7c0-3.8-3.1-7-7-7s-7,3.1-7,7C21.1,119.3,24.2,122.4,28,122.4z
				 M28,155.8c3.8,0,7-3.1,7-7c0-3.8-3.1-7-7-7s-7,3.1-7,7C21.1,152.7,24.2,155.8,28,155.8z M68.4,190.6c3.8,0,7-3.1,7-7
				c0-3.8-3.1-7-7-7s-7,3.1-7,7C61.5,187.5,64.6,190.6,68.4,190.6z M68.4,87.6c3.8,0,7-3.1,7-7c0-3.8-3.1-7-7-7s-7,3.1-7,7
				C61.5,84.5,64.6,87.6,68.4,87.6z"/>
		</g>
	</g>
	<g>
		<path class="st1" d="M174.9,168.4V95.5h30.4c12.8,0,22.1,11.8,22.1,23.3c0,12-8.6,23.4-21.5,23.4h-21.8v26.2H174.9z M184.1,134
			h21.3c7.6,0,12.6-6.9,12.6-15.2c0-8.6-6.2-15.1-13.3-15.1h-20.6V134z"/>
		<path class="st1" d="M297.3,95.5v72.9h-9.2v-33.2h-40.2v33.2h-9.2V95.5h9.2V127h40.2V95.5H297.3z"/>
		<path class="st1" d="M316.6,95.5l22.1,38l22.3-38h10.1l-27.7,46.3v26.6h-9.2v-26.8l-27.6-46.1H316.6z"/>
		<path class="st1" d="M420.9,110.8c-3.4-3.8-11.1-7.6-19.8-7.6c-11.3,0-16.4,4.5-16.4,11.9c0,7.8,6.1,9.9,19.2,12.8
			c15.2,3.4,24.7,7.7,24.7,20.9c0,14.1-11.5,20.3-26.5,20.3c-11.2,0-21.5-3.6-29.7-10.3l4.4-7.8c4.4,4.6,14.4,9.8,25.5,9.8
			c10.4,0,16.4-3.8,16.4-11.1c0-8.2-7.5-10.7-21.1-14c-14.8-3.6-22.5-7.6-22.5-19.2c0-14,11.1-21.6,26.2-21.6
			c9.8,0,17.8,3.3,23.9,8.3L420.9,110.8z"/>
		<path class="st1" d="M440.8,168.4V95.6h9.2v72.8H440.8z"/>
		<path class="st1" d="M497.6,95.1c12.9,0,22.6,6.6,27.1,15.9l-7.3,4.7c-4.3-9.2-12.8-12.3-20.2-12.3c-16.2,0-25,14.7-25,28.5
			c0,15.2,10.8,28.9,25.3,28.9c7.6,0,16.6-3.8,20.9-12.8l7.7,4.2c-4.6,10.9-17.7,17-29,17c-20,0-34.2-19.1-34.2-37.6
			C462.9,113.8,475.6,95.1,497.6,95.1z"/>
		<path class="st1" d="M580.3,110.8c-3.4-3.8-11.1-7.6-19.8-7.6c-11.3,0-16.4,4.5-16.4,11.9c0,7.8,6.1,9.9,19.2,12.8
			c15.2,3.4,24.7,7.7,24.7,20.9c0,14.1-11.5,20.3-26.5,20.3c-11.2,0-21.5-3.6-29.7-10.3l4.4-7.8c4.4,4.6,14.4,9.8,25.5,9.8
			c10.4,0,16.4-3.8,16.4-11.1c0-8.2-7.5-10.7-21.1-14c-14.8-3.6-22.5-7.6-22.5-19.2c0-14,11.1-21.6,26.2-21.6
			c9.8,0,17.8,3.3,23.9,8.3L580.3,110.8z"/>
	</g>
</g>
</svg>
